<?xml version="1.0" encoding="UTF-8"?> <svg xmlns="http://www.w3.org/2000/svg" id="F2_Logos" data-name="F2 Logos" viewBox="0 0 426 115"><defs><style> .cls-1 { fill: #192630; } .cls-1, .cls-2 { stroke-width: 0px; } .cls-2 { fill: #00c693; } </style></defs><g><polygon class="cls-1" points="133.09 48.81 133.09 4.2 159.67 4.2 159.67 8.93 138.46 8.93 138.46 23.88 157.82 23.88 157.82 28.61 138.46 28.61 138.46 48.81 133.09 48.81"></polygon><g><path class="cls-1" d="M166.19,15.83h5.11v32.98h-5.11V15.83ZM168.75,8.09c-1.11,0-1.91-.26-2.4-.8-.49-.53-.74-1.22-.74-2.08v-.83c0-.85.24-1.54.74-2.08.49-.53,1.29-.8,2.4-.8s1.91.27,2.4.8c.49.53.74,1.23.74,2.08v.83c0,.85-.25,1.55-.74,2.08-.49.54-1.29.8-2.4.8"></path><path class="cls-1" d="M177.18,48.81V15.83h5.11v5.31h.26c.81-1.86,1.95-3.33,3.42-4.43,1.47-1.1,3.44-1.65,5.91-1.65,3.41,0,6.1,1.1,8.08,3.29,1.98,2.2,2.97,5.29,2.97,9.3v21.15h-5.11v-20.3c0-5.94-2.49-8.9-7.48-8.9-1.02,0-2.01.13-2.97.38-.96.26-1.82.64-2.59,1.15-.77.51-1.37,1.16-1.82,1.95-.45.79-.67,1.72-.67,2.79v22.93h-5.11Z"></path><path class="cls-1" d="M227.8,44.84c1.92,0,3.68-.34,5.3-1.02s3.02-1.67,4.19-2.95c1.17-1.28,2.08-2.82,2.72-4.62.64-1.8.96-3.81.96-6.03v-7.44c0-2.22-.32-4.23-.96-6.03-.64-1.79-1.54-3.33-2.72-4.62-1.17-1.28-2.57-2.27-4.19-2.95-1.62-.68-3.39-1.03-5.3-1.03s-3.69.34-5.31,1.03c-1.62.68-3.01,1.67-4.19,2.95-1.17,1.28-2.08,2.82-2.72,4.62-.64,1.8-.96,3.81-.96,6.03v7.44c0,2.22.32,4.23.96,6.03.64,1.79,1.54,3.34,2.72,4.62,1.17,1.28,2.57,2.27,4.19,2.95,1.62.68,3.39,1.02,5.31,1.02M227.8,49.58c-2.9,0-5.51-.5-7.83-1.5-2.32-1-4.3-2.47-5.94-4.41-1.64-1.94-2.91-4.35-3.8-7.22-.89-2.88-1.34-6.19-1.34-9.94s.45-7.05,1.34-9.91c.9-2.85,2.16-5.26,3.8-7.22,1.64-1.96,3.62-3.44,5.94-4.44,2.32-1,4.93-1.5,7.83-1.5s5.45.5,7.8,1.5c2.34,1,4.33,2.48,5.98,4.44,1.64,1.96,2.91,4.37,3.8,7.22.89,2.86,1.34,6.16,1.34,9.91s-.45,7.06-1.34,9.94c-.89,2.88-2.16,5.28-3.8,7.22-1.64,1.94-3.63,3.41-5.98,4.41-2.34,1-4.94,1.5-7.8,1.5"></path><path class="cls-1" d="M265.32,45.04c2.9,0,5.18-.91,6.84-2.73,1.66-1.82,2.49-4.21,2.49-7.16v-5.65c0-2.96-.83-5.34-2.49-7.16-1.66-1.82-3.94-2.73-6.84-2.73-1.15,0-2.25.16-3.29.48-1.04.32-1.95.76-2.72,1.31-.77.56-1.37,1.23-1.82,2.02-.45.79-.67,1.64-.67,2.54v12.33c0,1.07.22,2.02.67,2.86.45.83,1.05,1.54,1.82,2.12.77.58,1.67,1.02,2.72,1.32,1.04.3,2.14.45,3.29.45M251.71,15.83h5.11v5.31h.26c.85-2.07,2.1-3.6,3.74-4.59,1.64-.99,3.61-1.49,5.91-1.49,2.04,0,3.9.41,5.56,1.21,1.66.81,3.08,1.96,4.25,3.45,1.17,1.49,2.07,3.3,2.68,5.43.62,2.13.93,4.52.93,7.16s-.31,5.03-.93,7.16c-.62,2.13-1.51,3.94-2.68,5.43-1.17,1.49-2.59,2.64-4.25,3.45-1.66.81-3.52,1.21-5.56,1.21-4.47,0-7.69-2.02-9.65-6.07h-.26v18.09h-5.11V15.83Z"></path><path class="cls-1" d="M296.87,49.58c-3.07,0-5.64-.59-7.7-1.76-2.07-1.17-3.85-2.74-5.34-4.7l3.64-2.94c1.28,1.62,2.71,2.86,4.28,3.74,1.58.87,3.41,1.31,5.5,1.31s3.87-.47,5.08-1.41c1.21-.94,1.82-2.26,1.82-3.96,0-1.28-.42-2.37-1.25-3.29-.83-.92-2.33-1.54-4.51-1.89l-2.62-.38c-1.53-.21-2.94-.54-4.22-.99-1.28-.45-2.4-1.04-3.36-1.79-.96-.74-1.7-1.67-2.24-2.78-.53-1.11-.8-2.43-.8-3.96,0-1.62.3-3.04.89-4.25.6-1.21,1.42-2.23,2.46-3.04,1.04-.81,2.29-1.42,3.74-1.82,1.45-.4,3-.61,4.67-.61,2.68,0,4.93.47,6.74,1.41,1.81.94,3.4,2.24,4.76,3.9l-3.39,3.07c-.73-1.02-1.79-1.95-3.2-2.78-1.41-.83-3.17-1.25-5.3-1.25s-3.74.46-4.83,1.37c-1.09.92-1.63,2.16-1.63,3.74s.54,2.79,1.63,3.52c1.09.72,2.65,1.26,4.7,1.6l2.56.38c3.66.55,6.26,1.61,7.8,3.16,1.53,1.56,2.3,3.59,2.3,6.1,0,3.2-1.09,5.71-3.26,7.54-2.17,1.83-5.15,2.75-8.95,2.75"></path></g><polygon class="cls-1" points="133.09 112.72 133.09 68.11 159.67 68.11 159.67 72.84 138.46 72.84 138.46 87.79 157.82 87.79 157.82 92.53 138.46 92.53 138.46 112.72 133.09 112.72"></polygon><g><path class="cls-1" d="M178.62,108.95c2.77,0,5.03-.85,6.77-2.56,1.75-1.7,2.62-4.3,2.62-7.8v-4.73c0-3.49-.87-6.09-2.62-7.8-1.75-1.7-4.01-2.56-6.77-2.56s-5.03.85-6.77,2.56c-1.75,1.7-2.62,4.3-2.62,7.8v4.73c0,3.5.87,6.09,2.62,7.8,1.75,1.7,4,2.56,6.77,2.56M178.62,113.49c-2.22,0-4.24-.41-6.07-1.21-1.83-.81-3.4-1.97-4.7-3.48-1.3-1.51-2.31-3.32-3.04-5.43-.73-2.11-1.09-4.48-1.09-7.13s.36-4.96,1.09-7.09c.72-2.13,1.74-3.95,3.04-5.46,1.3-1.51,2.86-2.67,4.7-3.48s3.86-1.21,6.07-1.21,4.23.41,6.04,1.21,3.38,1.97,4.7,3.48c1.32,1.51,2.34,3.33,3.07,5.46.72,2.13,1.09,4.5,1.09,7.09s-.36,5.02-1.09,7.13c-.73,2.11-1.75,3.92-3.07,5.43-1.32,1.51-2.89,2.67-4.7,3.48-1.81.81-3.82,1.21-6.04,1.21"></path><path class="cls-1" d="M219.2,107.41h-.26c-.34.76-.76,1.51-1.25,2.25-.49.74-1.1,1.39-1.82,1.96-.73.57-1.6,1.02-2.62,1.36-1.02.34-2.22.51-3.58.51-3.41,0-6.12-1.1-8.12-3.29-2-2.2-3.01-5.29-3.01-9.3v-21.15h5.11v20.3c0,5.94,2.51,8.9,7.54,8.9,1.02,0,2.01-.13,2.97-.38.96-.26,1.81-.64,2.56-1.15.74-.51,1.34-1.16,1.79-1.95.45-.79.67-1.74.67-2.85v-22.87h5.11v32.98h-5.11v-5.31Z"></path><path class="cls-1" d="M231.47,112.72v-32.98h5.11v5.31h.26c.81-1.86,1.95-3.33,3.42-4.43,1.47-1.1,3.44-1.65,5.91-1.65,3.41,0,6.1,1.1,8.08,3.29,1.98,2.2,2.97,5.29,2.97,9.3v21.15h-5.11v-20.3c0-5.94-2.49-8.9-7.48-8.9-1.02,0-2.01.13-2.97.38-.96.26-1.82.64-2.59,1.15-.77.51-1.37,1.17-1.82,1.95-.45.79-.67,1.72-.67,2.79v22.93h-5.11Z"></path><path class="cls-1" d="M277.3,108.95c1.15,0,2.25-.15,3.29-.45,1.04-.3,1.95-.74,2.72-1.32.77-.58,1.38-1.29,1.82-2.12.45-.83.67-1.79.67-2.86v-12.33c0-.9-.22-1.74-.67-2.54-.45-.79-1.05-1.46-1.82-2.02-.77-.56-1.67-.99-2.72-1.32-1.04-.32-2.14-.48-3.29-.48-2.9,0-5.18.91-6.84,2.73-1.66,1.82-2.49,4.21-2.49,7.16v5.65c0,2.96.83,5.34,2.49,7.16,1.66,1.82,3.94,2.73,6.84,2.73M285.8,107.41h-.26c-2,4.05-5.22,6.08-9.65,6.08-2.05,0-3.9-.41-5.56-1.22-1.66-.81-3.08-1.96-4.25-3.45-1.17-1.49-2.07-3.3-2.68-5.43-.62-2.13-.93-4.51-.93-7.16s.31-5.03.93-7.16c.62-2.13,1.51-3.94,2.68-5.43,1.17-1.49,2.59-2.64,4.25-3.45,1.66-.81,3.51-1.21,5.56-1.21,2.3,0,4.27.5,5.91,1.49,1.64.99,2.89,2.52,3.74,4.59h.26v-19.62h5.11v47.29h-5.11v-5.31Z"></path><path class="cls-1" d="M309.06,109.14c1.28,0,2.45-.15,3.51-.45,1.07-.3,1.98-.72,2.75-1.28.77-.55,1.36-1.19,1.79-1.92.43-.72.64-1.51.64-2.37v-5.43h-6.77c-2.94,0-5.08.43-6.42,1.28-1.34.85-2.01,2.09-2.01,3.71v1.34c0,1.62.59,2.88,1.76,3.77,1.17.89,2.76,1.34,4.76,1.34M323.76,112.72c-1.92,0-3.29-.51-4.12-1.53-.83-1.02-1.35-2.3-1.57-3.84h-.32c-.73,2.05-1.92,3.58-3.58,4.6-1.66,1.02-3.64,1.53-5.94,1.53-3.49,0-6.21-.9-8.15-2.68-1.94-1.79-2.91-4.22-2.91-7.29s1.14-5.5,3.42-7.16c2.28-1.66,5.83-2.49,10.64-2.49h6.52v-3.26c0-2.34-.64-4.13-1.92-5.37-1.28-1.24-3.24-1.85-5.88-1.85-2,0-3.67.45-5.02,1.34-1.34.89-2.46,2.09-3.35,3.58l-3.07-2.88c.9-1.79,2.32-3.31,4.28-4.57,1.96-1.26,4.43-1.88,7.41-1.88,4.01,0,7.11.98,9.33,2.93s3.32,4.68,3.32,8.16v18.11h3.77v4.54h-2.88Z"></path><path class="cls-1" d="M339.87,112.72c-1.79,0-3.14-.5-4.06-1.5-.92-1-1.37-2.31-1.37-3.92v-23.02h-5.43v-4.54h3.07c1.11,0,1.86-.22,2.27-.67.4-.45.61-1.22.61-2.33v-6.13h4.6v9.14h7.22v4.54h-7.22v23.9h6.71v4.54h-6.39Z"></path><path class="cls-1" d="M354.8,79.74h5.11v32.98h-5.11v-32.98ZM357.36,72.01c-1.11,0-1.91-.27-2.4-.8-.49-.53-.74-1.23-.74-2.08v-.83c0-.85.24-1.54.74-2.08.49-.53,1.29-.8,2.4-.8s1.91.27,2.4.8c.49.54.74,1.23.74,2.08v.83c0,.85-.25,1.55-.74,2.08-.49.53-1.29.8-2.4.8"></path><path class="cls-1" d="M380.19,108.95c2.77,0,5.03-.85,6.77-2.56,1.75-1.7,2.62-4.3,2.62-7.8v-4.73c0-3.49-.87-6.09-2.62-7.8-1.75-1.7-4.01-2.56-6.77-2.56s-5.03.85-6.77,2.56c-1.75,1.7-2.62,4.3-2.62,7.8v4.73c0,3.5.87,6.09,2.62,7.8,1.75,1.7,4,2.56,6.77,2.56M380.19,113.49c-2.22,0-4.24-.41-6.07-1.21-1.83-.81-3.4-1.97-4.7-3.48-1.3-1.51-2.31-3.32-3.04-5.43-.73-2.11-1.09-4.48-1.09-7.13s.36-4.96,1.09-7.09c.72-2.13,1.74-3.95,3.04-5.46,1.3-1.51,2.86-2.67,4.7-3.48s3.86-1.21,6.07-1.21,4.23.41,6.04,1.21,3.38,1.97,4.7,3.48c1.32,1.51,2.34,3.33,3.07,5.46.72,2.13,1.09,4.5,1.09,7.09s-.36,5.02-1.09,7.13c-.73,2.11-1.75,3.92-3.07,5.43-1.32,1.51-2.89,2.67-4.7,3.48-1.81.81-3.82,1.21-6.04,1.21"></path><path class="cls-1" d="M399.11,112.72v-32.98h5.11v5.31h.26c.81-1.86,1.95-3.33,3.42-4.43,1.47-1.1,3.44-1.65,5.91-1.65,3.41,0,6.1,1.1,8.08,3.29,1.98,2.2,2.97,5.29,2.97,9.3v21.15h-5.11v-20.3c0-5.94-2.49-8.9-7.48-8.9-1.02,0-2.01.13-2.97.38-.96.26-1.82.64-2.59,1.15-.77.51-1.37,1.17-1.82,1.95-.45.79-.67,1.72-.67,2.79v22.93h-5.11Z"></path></g></g><g><polygon class="cls-2" points="1.13 89.29 43.04 112.72 43.04 64.55 1.13 41.12 1.13 89.29"></polygon><polygon class="cls-2" points="57.37 64.55 57.37 112.72 99.29 89.29 99.29 41.12 57.37 64.55"></polygon><polygon class="cls-2" points="50.2 4.2 8.32 29.06 50.2 52.47 92.08 29.06 50.2 4.2"></polygon></g></svg> 